<svg width="32" height="32" viewBox="0 0 32 32" fill="none" xmlns="http://www.w3.org/2000/svg">
<circle cx="16" cy="16" r="16" fill="#DBDEE6"/>
<path d="M18.7523 15.8631C18.6681 15.8069 18.5697 15.821 18.4996 15.8771C17.7975 16.3966 16.9409 16.6915 16 16.6915C15.0592 16.6915 14.2026 16.3826 13.5005 15.8771C13.4302 15.821 13.3179 15.821 13.2478 15.8631C11.5908 16.9303 10.7622 19.0226 10.7622 21.4239C10.7622 23.0809 21.2379 23.0809 21.2379 21.4239C21.2377 19.0226 20.4092 16.9303 18.7523 15.8631H18.7523Z" fill="white"/>
<path d="M19.1316 12.4648C19.1316 14.1943 17.7296 15.5963 16.0001 15.5963C14.2706 15.5963 12.8687 14.1942 12.8687 12.4648C12.8687 10.7354 14.2706 9.33331 16.0001 9.33331C17.7296 9.33331 19.1316 10.7353 19.1316 12.4648Z" fill="white"/>
<g clip-path="url(#clip0_316_1244)">
<rect width="32" height="32" rx="16" fill="#DBDEE6"/>
<path d="M20.7395 20.7535C20.5879 20.6525 20.4109 20.6777 20.2846 20.7788C19.0208 21.7139 17.479 22.2448 15.7854 22.2448C14.0919 22.2448 12.5501 21.6887 11.2863 20.7788C11.1598 20.6777 10.9576 20.6777 10.8314 20.7535C7.84886 22.6745 6.35742 26.4408 6.35742 30.763C6.35742 33.7456 25.2136 33.7456 25.2136 30.763C25.2132 26.4407 23.7219 22.6746 20.7394 20.7535H20.7395Z" fill="white"/>
<path d="M21.4219 14.6367C21.4219 17.7497 18.8984 20.2733 15.7853 20.2733C12.6723 20.2733 10.1487 17.7496 10.1487 14.6367C10.1487 11.5238 12.6723 9 15.7853 9C18.8984 9 21.4219 11.5236 21.4219 14.6367Z" fill="white"/>
</g>
<circle cx="16" cy="16" r="16" fill="url(#paint0_linear_316_1244)"/>
<path d="M14.0316 21.182C11.3296 21.182 9.83159 19.432 9.83159 16.772C9.83159 14.126 11.3996 12.418 14.0316 12.418C16.6776 12.418 18.2316 14.126 18.2316 16.772C18.2316 19.432 16.7196 21.182 14.0316 21.182ZM14.0176 19.796C15.8376 19.796 16.6356 18.606 16.6356 16.772C16.6356 15.008 15.8236 13.818 14.0316 13.818C12.2256 13.818 11.4136 15.008 11.4136 16.772C11.4136 18.592 12.2116 19.796 14.0176 19.796ZM20.1448 18.648V12.6H21.7408V18.634C21.7408 20.132 21.0828 21.112 19.4728 21.112C19.0528 21.112 18.7168 21.07 18.3808 21.014L18.4508 19.642C18.7308 19.684 18.9548 19.726 19.2208 19.726C19.8788 19.726 20.1448 19.32 20.1448 18.648Z" fill="url(#paint1_linear_316_1244)"/>
<defs>
<linearGradient id="paint0_linear_316_1244" x1="1.6" y1="7.70569e-07" x2="29.44" y2="32" gradientUnits="userSpaceOnUse">
<stop stop-color="#5C6670"/>
<stop offset="1" stop-color="#131316"/>
</linearGradient>
<linearGradient id="paint1_linear_316_1244" x1="8.09986" y1="6.95634" x2="28.8778" y2="12.7528" gradientUnits="userSpaceOnUse">
<stop stop-color="white"/>
<stop offset="1" stop-color="#F2F3F5"/>
</linearGradient>
<clipPath id="clip0_316_1244">
<rect width="32" height="32" rx="16" fill="white"/>
</clipPath>
</defs>
</svg>
