<svg width="20" height="20" viewBox="0 0 20 20" fill="none" xmlns="http://www.w3.org/2000/svg">
<g id="vector">
<path id="Vector" d="M13.8403 2.92499V9.02499C13.8403 9.41499 13.5303 9.72499 13.1403 9.72499H7.98027C7.59027 9.72499 7.28027 9.41499 7.28027 9.02499V8.05499H2.98027C2.59027 8.05499 2.28027 7.74499 2.28027 7.35499V1.25499C2.28027 0.864993 2.59027 0.554993 2.98027 0.554993H8.14027C8.53027 0.554993 8.84027 0.864993 8.84027 1.25499V2.22499H13.1403C13.5203 2.22499 13.8403 2.54499 13.8403 2.92499Z" fill="url(#paint0_linear_316_1460)"/>
<path id="Vector_2" d="M9.59 12.1849H0.7C0.31 12.1849 0 11.8749 0 11.4849V4.55492C0 4.16492 0.31 3.85492 0.7 3.85492H9.59C9.98 3.85492 10.29 4.16492 10.29 4.55492V11.4849C10.29 11.8749 9.98 12.1849 9.59 12.1849Z" fill="url(#paint1_linear_316_1460)"/>
<path id="Vector_3" d="M19.3 19.445H0.7C0.31 19.445 0 19.135 0 18.745V6.47496C0 6.08496 0.31 5.77496 0.7 5.77496H19.3C19.69 5.77496 20 6.08496 20 6.47496V18.745C20 19.135 19.69 19.445 19.3 19.445Z" fill="url(#paint2_linear_316_1460)"/>
</g>
<defs>
<linearGradient id="paint0_linear_316_1460" x1="2.27548" y1="5.14244" x2="13.8365" y2="5.14244" gradientUnits="userSpaceOnUse">
<stop stop-color="#FCFF1C"/>
<stop offset="1" stop-color="#FF9D0A"/>
</linearGradient>
<linearGradient id="paint1_linear_316_1460" x1="0" y1="8.0223" x2="10.293" y2="8.0223" gradientUnits="userSpaceOnUse">
<stop stop-color="#E7CFFF"/>
<stop offset="1" stop-color="#870FFF"/>
</linearGradient>
<linearGradient id="paint2_linear_316_1460" x1="0" y1="12.6143" x2="20" y2="12.6143" gradientUnits="userSpaceOnUse">
<stop stop-color="#03FFE5"/>
<stop offset="1" stop-color="#14B348"/>
</linearGradient>
</defs>
</svg>
